<mxfile host="app.diagrams.net" modified="2024-03-15T07:36:09.636Z" agent="Mozilla/5.0 (Windows NT 10.0; Win64; x64; rv:123.0) Gecko/20100101 Firefox/123.0" etag="si0Xkd32pGYeGf9wBi4R" version="24.0.2" type="device">
  <diagram name="Page-1" id="kfeUM7ncF0NBmRUnIfUb">
    <mxGraphModel dx="2954" dy="1134" grid="1" gridSize="10" guides="1" tooltips="1" connect="1" arrows="1" fold="1" page="1" pageScale="1" pageWidth="850" pageHeight="1100" math="0" shadow="0">
      <root>
        <mxCell id="0" />
        <mxCell id="1" parent="0" />
        <mxCell id="3npMG4CBkp7sPQHAlQO3-1" value="&lt;p style=&quot;margin:0px;margin-top:4px;text-align:center;&quot;&gt;&lt;b&gt;Workflow Unterbruch Retrieve Data Activity Diagram&lt;/b&gt;&lt;br&gt;&lt;/p&gt;&lt;hr size=&quot;1&quot;&gt;&lt;div style=&quot;height:2px;&quot;&gt;&lt;/div&gt;" style="verticalAlign=top;align=left;overflow=fill;html=1;whiteSpace=wrap;" parent="1" vertex="1">
          <mxGeometry x="120" y="80" width="640" height="680" as="geometry" />
        </mxCell>
        <mxCell id="3npMG4CBkp7sPQHAlQO3-2" value="&lt;p style=&quot;margin:0px;margin-top:4px;text-align:center;&quot;&gt;&lt;b&gt;User&lt;/b&gt;&lt;br&gt;&lt;/p&gt;&lt;hr size=&quot;1&quot;&gt;&lt;div style=&quot;height:2px;&quot;&gt;&lt;/div&gt;" style="verticalAlign=top;align=left;overflow=fill;html=1;whiteSpace=wrap;" parent="1" vertex="1">
          <mxGeometry x="120" y="104" width="280" height="656" as="geometry" />
        </mxCell>
        <mxCell id="3npMG4CBkp7sPQHAlQO3-3" value="&lt;p style=&quot;margin:0px;margin-top:4px;text-align:center;&quot;&gt;&lt;b&gt;System&lt;/b&gt;&lt;br&gt;&lt;/p&gt;&lt;hr size=&quot;1&quot;&gt;&lt;div style=&quot;height:2px;&quot;&gt;&lt;/div&gt;" style="verticalAlign=top;align=left;overflow=fill;html=1;whiteSpace=wrap;" parent="1" vertex="1">
          <mxGeometry x="400" y="104" width="360" height="656" as="geometry" />
        </mxCell>
        <mxCell id="RTWE98j4PJ2n2rW44HKh-9" style="edgeStyle=orthogonalEdgeStyle;rounded=0;orthogonalLoop=1;jettySize=auto;html=1;fillColor=#dae8fc;strokeColor=#6c8ebf;entryX=0.5;entryY=0;entryDx=0;entryDy=0;" parent="1" source="3npMG4CBkp7sPQHAlQO3-4" target="3npMG4CBkp7sPQHAlQO3-6" edge="1">
          <mxGeometry relative="1" as="geometry">
            <Array as="points" />
            <mxPoint x="180" y="210" as="targetPoint" />
          </mxGeometry>
        </mxCell>
        <mxCell id="RTWE98j4PJ2n2rW44HKh-22" style="edgeStyle=orthogonalEdgeStyle;rounded=0;orthogonalLoop=1;jettySize=auto;html=1;entryX=0.5;entryY=0;entryDx=0;entryDy=0;fillColor=#d5e8d4;strokeColor=#82b366;endArrow=open;endFill=0;" parent="1" source="3npMG4CBkp7sPQHAlQO3-4" target="RTWE98j4PJ2n2rW44HKh-13" edge="1">
          <mxGeometry relative="1" as="geometry">
            <Array as="points">
              <mxPoint x="580" y="155" />
            </Array>
          </mxGeometry>
        </mxCell>
        <mxCell id="3npMG4CBkp7sPQHAlQO3-4" value="" style="ellipse;html=1;shape=startState;fillColor=#dae8fc;strokeColor=#6c8ebf;" parent="1" vertex="1">
          <mxGeometry x="240" y="140" width="30" height="30" as="geometry" />
        </mxCell>
        <mxCell id="3npMG4CBkp7sPQHAlQO3-6" value="View Task Page" style="rounded=1;whiteSpace=wrap;html=1;arcSize=40;fillColor=#dae8fc;strokeColor=#6c8ebf;" parent="1" vertex="1">
          <mxGeometry x="195" y="230" width="120" height="40" as="geometry" />
        </mxCell>
        <mxCell id="3npMG4CBkp7sPQHAlQO3-7" value="" style="edgeStyle=orthogonalEdgeStyle;html=1;verticalAlign=bottom;endArrow=open;endSize=8;strokeColor=#6c8ebf;rounded=0;fillColor=#dae8fc;" parent="1" source="3npMG4CBkp7sPQHAlQO3-6" edge="1">
          <mxGeometry relative="1" as="geometry">
            <mxPoint x="255" y="330" as="targetPoint" />
          </mxGeometry>
        </mxCell>
        <mxCell id="3npMG4CBkp7sPQHAlQO3-8" value="Click &quot;Continue&quot; Button next to Customer Task" style="rounded=1;whiteSpace=wrap;html=1;arcSize=40;fillColor=#dae8fc;strokeColor=#6c8ebf;" parent="1" vertex="1">
          <mxGeometry x="195" y="330" width="120" height="50" as="geometry" />
        </mxCell>
        <mxCell id="3npMG4CBkp7sPQHAlQO3-9" value="" style="edgeStyle=orthogonalEdgeStyle;html=1;verticalAlign=bottom;endArrow=open;endSize=8;strokeColor=#6c8ebf;rounded=0;fillColor=#dae8fc;entryX=0;entryY=0.5;entryDx=0;entryDy=0;" parent="1" source="3npMG4CBkp7sPQHAlQO3-8" target="3npMG4CBkp7sPQHAlQO3-10" edge="1">
          <mxGeometry relative="1" as="geometry">
            <mxPoint x="255" y="430" as="targetPoint" />
            <Array as="points">
              <mxPoint x="430" y="355" />
              <mxPoint x="430" y="560" />
            </Array>
          </mxGeometry>
        </mxCell>
        <mxCell id="3npMG4CBkp7sPQHAlQO3-10" value="Retrieve Task Data" style="rounded=1;whiteSpace=wrap;html=1;arcSize=40;fillColor=#d5e8d4;strokeColor=#82b366;" parent="1" vertex="1">
          <mxGeometry x="520" y="540" width="120" height="40" as="geometry" />
        </mxCell>
        <mxCell id="3npMG4CBkp7sPQHAlQO3-11" value="" style="edgeStyle=orthogonalEdgeStyle;html=1;verticalAlign=bottom;endArrow=open;endSize=8;strokeColor=#82b366;rounded=0;fillColor=#d5e8d4;entryX=0.5;entryY=0;entryDx=0;entryDy=0;" parent="1" source="3npMG4CBkp7sPQHAlQO3-10" target="3npMG4CBkp7sPQHAlQO3-15" edge="1">
          <mxGeometry relative="1" as="geometry">
            <mxPoint x="580" y="430" as="targetPoint" />
          </mxGeometry>
        </mxCell>
        <mxCell id="3npMG4CBkp7sPQHAlQO3-15" value="Fill out Form with saved Data" style="rounded=1;whiteSpace=wrap;html=1;arcSize=40;fillColor=#d5e8d4;strokeColor=#82b366;" parent="1" vertex="1">
          <mxGeometry x="520" y="660" width="120" height="60" as="geometry" />
        </mxCell>
        <mxCell id="3npMG4CBkp7sPQHAlQO3-16" value="" style="edgeStyle=orthogonalEdgeStyle;html=1;verticalAlign=bottom;endArrow=open;endSize=8;strokeColor=#82b366;rounded=0;fillColor=#d5e8d4;entryX=1;entryY=0.5;entryDx=0;entryDy=0;" parent="1" source="3npMG4CBkp7sPQHAlQO3-15" target="3npMG4CBkp7sPQHAlQO3-17" edge="1">
          <mxGeometry relative="1" as="geometry">
            <mxPoint x="580" y="530" as="targetPoint" />
            <Array as="points">
              <mxPoint x="380" y="690" />
              <mxPoint x="380" y="460" />
            </Array>
          </mxGeometry>
        </mxCell>
        <mxCell id="3npMG4CBkp7sPQHAlQO3-17" value="Show Unfinished Customer Task Page" style="rounded=1;whiteSpace=wrap;html=1;arcSize=40;fillColor=#dae8fc;strokeColor=#6c8ebf;" parent="1" vertex="1">
          <mxGeometry x="200" y="440" width="120" height="40" as="geometry" />
        </mxCell>
        <mxCell id="3npMG4CBkp7sPQHAlQO3-18" value="" style="edgeStyle=orthogonalEdgeStyle;html=1;verticalAlign=bottom;endArrow=open;endSize=8;strokeColor=#6c8ebf;rounded=0;fillColor=#dae8fc;" parent="1" source="3npMG4CBkp7sPQHAlQO3-17" edge="1">
          <mxGeometry relative="1" as="geometry">
            <mxPoint x="260" y="540" as="targetPoint" />
          </mxGeometry>
        </mxCell>
        <mxCell id="3npMG4CBkp7sPQHAlQO3-19" value="" style="ellipse;html=1;shape=endState;fillColor=#dae8fc;strokeColor=#6c8ebf;" parent="1" vertex="1">
          <mxGeometry x="245" y="540" width="30" height="30" as="geometry" />
        </mxCell>
        <mxCell id="UtXYJ5dN2m1Lnok2iP51-1" style="edgeStyle=orthogonalEdgeStyle;rounded=0;orthogonalLoop=1;jettySize=auto;html=1;fillColor=#d5e8d4;strokeColor=#82b366;endArrow=open;endFill=0;" parent="1" source="RTWE98j4PJ2n2rW44HKh-13" target="RTWE98j4PJ2n2rW44HKh-18" edge="1">
          <mxGeometry relative="1" as="geometry" />
        </mxCell>
        <mxCell id="RTWE98j4PJ2n2rW44HKh-13" value="Task Duration over N-Days?" style="rhombus;whiteSpace=wrap;html=1;fillColor=#d5e8d4;strokeColor=#82b366;" parent="1" vertex="1">
          <mxGeometry x="480" y="250" width="200" height="90" as="geometry" />
        </mxCell>
        <mxCell id="RTWE98j4PJ2n2rW44HKh-14" value="no" style="edgeStyle=orthogonalEdgeStyle;html=1;align=left;verticalAlign=bottom;endArrow=open;endSize=8;strokeColor=#82b366;rounded=0;fillColor=#d5e8d4;entryX=0.5;entryY=0;entryDx=0;entryDy=0;" parent="1" source="RTWE98j4PJ2n2rW44HKh-13" target="3npMG4CBkp7sPQHAlQO3-6" edge="1">
          <mxGeometry x="-1" relative="1" as="geometry">
            <mxPoint x="685" y="210" as="targetPoint" />
            <Array as="points">
              <mxPoint x="690" y="295" />
              <mxPoint x="690" y="200" />
              <mxPoint x="255" y="200" />
            </Array>
          </mxGeometry>
        </mxCell>
        <mxCell id="RTWE98j4PJ2n2rW44HKh-15" value="yes" style="edgeStyle=orthogonalEdgeStyle;html=1;align=left;verticalAlign=top;endArrow=open;endSize=8;strokeColor=#82b366;rounded=0;fillColor=#d5e8d4;" parent="1" source="RTWE98j4PJ2n2rW44HKh-13" target="RTWE98j4PJ2n2rW44HKh-17" edge="1">
          <mxGeometry x="-1" relative="1" as="geometry">
            <mxPoint x="580" y="340" as="targetPoint" />
          </mxGeometry>
        </mxCell>
        <mxCell id="RTWE98j4PJ2n2rW44HKh-21" style="edgeStyle=orthogonalEdgeStyle;rounded=0;orthogonalLoop=1;jettySize=auto;html=1;entryX=0;entryY=0.5;entryDx=0;entryDy=0;fillColor=#d5e8d4;strokeColor=#82b366;endArrow=open;endFill=0;" parent="1" source="RTWE98j4PJ2n2rW44HKh-17" target="RTWE98j4PJ2n2rW44HKh-20" edge="1">
          <mxGeometry relative="1" as="geometry" />
        </mxCell>
        <mxCell id="RTWE98j4PJ2n2rW44HKh-17" value="Send E-Mail with Link" style="rounded=1;whiteSpace=wrap;html=1;arcSize=40;fillColor=#d5e8d4;strokeColor=#82b366;" parent="1" vertex="1">
          <mxGeometry x="450" y="400" width="130" height="40" as="geometry" />
        </mxCell>
        <mxCell id="RTWE98j4PJ2n2rW44HKh-18" value="Visualize Task Duration" style="rounded=1;whiteSpace=wrap;html=1;arcSize=40;fillColor=#d5e8d4;strokeColor=#82b366;" parent="1" vertex="1">
          <mxGeometry x="620" y="400" width="120" height="40" as="geometry" />
        </mxCell>
        <mxCell id="RTWE98j4PJ2n2rW44HKh-19" value="" style="edgeStyle=orthogonalEdgeStyle;html=1;verticalAlign=bottom;endArrow=open;endSize=8;strokeColor=#82b366;rounded=0;entryX=1;entryY=0.5;entryDx=0;entryDy=0;fillColor=#d5e8d4;exitX=0.5;exitY=1;exitDx=0;exitDy=0;" parent="1" source="RTWE98j4PJ2n2rW44HKh-18" target="3npMG4CBkp7sPQHAlQO3-6" edge="1">
          <mxGeometry relative="1" as="geometry">
            <mxPoint x="690" y="510" as="targetPoint" />
            <Array as="points">
              <mxPoint x="680" y="510" />
              <mxPoint x="440" y="510" />
              <mxPoint x="440" y="250" />
            </Array>
          </mxGeometry>
        </mxCell>
        <mxCell id="RTWE98j4PJ2n2rW44HKh-20" value="" style="ellipse;html=1;shape=endState;fillColor=#d5e8d4;strokeColor=#82b366;" parent="1" vertex="1">
          <mxGeometry x="580" y="470" width="30" height="30" as="geometry" />
        </mxCell>
      </root>
    </mxGraphModel>
  </diagram>
</mxfile>
